<?xml version="1.0" encoding="iso-8859-1"?>
<!-- Uploaded to: SVG Repo, www.svgrepo.com, Generator: SVG Repo Mixer Tools -->
<!DOCTYPE svg PUBLIC "-//W3C//DTD SVG 1.1//EN" "http://www.w3.org/Graphics/SVG/1.1/DTD/svg11.dtd">
<svg fill="#000000" height="800px" width="800px" version="1.1" id="Capa_1" xmlns="http://www.w3.org/2000/svg" xmlns:xlink="http://www.w3.org/1999/xlink" 
	 viewBox="0 0 447 447" xml:space="preserve">
<path d="M315.117,112.734c-0.038-0.015-1.073-0.511-1.542-0.737c-8.893-4.295-12.951-6.255-12.951-25.997V6c0-3.313-2.686-6-6-6
	H270.29c-3.313,0-6,2.687-6,6v58c0,55.855-17.669,71.73-40.79,76.009c-23.122-4.279-40.79-20.155-40.79-76.009V6
	c0-3.313-2.687-6-6-6h-24.333c-3.314,0-6,2.687-6,6v80c0,19.741-4.059,21.702-12.951,25.997c-0.469,0.226-1.504,0.722-1.542,0.737
	c-26.708,10.907-43.966,36.596-43.966,65.447c0,18.767,7.401,36.029,20.84,48.607c4.964,4.645,10.581,8.499,16.672,11.499
	c0.044,0.047,0.075,0.102,0.121,0.147c25.539,25.539,25.539,67.092,0,92.631c-0.697,0.697-1.211,1.554-1.498,2.497l-6.731,22.129
	c-0.006,0.019-0.012,0.039-0.018,0.058l-0.002,0.005c-0.003,0.01-0.005,0.021-0.008,0.031c-0.053,0.178-0.099,0.359-0.136,0.544
	c-0.019,0.095-0.029,0.19-0.044,0.285c-0.015,0.098-0.033,0.195-0.043,0.295c-0.018,0.182-0.026,0.364-0.027,0.545
	c-0.001,0.016-0.002,0.03-0.002,0.046c0,0.001,0,0.002,0,0.003c0,0.407,0.041,0.809,0.121,1.201
	c0.028,0.136,0.066,0.268,0.103,0.401c0.015,0.052,0.025,0.106,0.041,0.158c0.051,0.167,0.112,0.329,0.177,0.489
	c0.007,0.018,0.012,0.036,0.02,0.053c0.059,0.142,0.127,0.28,0.197,0.416c0.019,0.036,0.034,0.074,0.053,0.109
	c0.06,0.11,0.126,0.216,0.192,0.322c0.037,0.06,0.07,0.122,0.109,0.18c0.051,0.077,0.108,0.148,0.163,0.222
	c0.062,0.083,0.121,0.169,0.187,0.25c0.037,0.045,0.078,0.086,0.116,0.13c0.09,0.104,0.179,0.207,0.276,0.304
	c0.02,0.02,0.042,0.038,0.063,0.058c0.118,0.115,0.239,0.228,0.367,0.333c0.004,0.003,0.008,0.006,0.012,0.009
	c0.144,0.119,0.294,0.231,0.45,0.337c0.009,0.006,0.019,0.011,0.029,0.018c0.149,0.1,0.303,0.195,0.463,0.281
	c0.351,0.191,0.725,0.347,1.114,0.465c0.001,0,0.001,0.001,0.002,0.001c0.002,0.001,0.005,0.001,0.007,0.001
	c0.248,0.075,0.504,0.129,0.764,0.172c0.066,0.011,0.133,0.021,0.2,0.03c0.235,0.03,0.474,0.05,0.717,0.053
	c0.02,0,0.04,0.004,0.06,0.004c0.004,0,0.009-0.001,0.013-0.001c42.155,0.008,76.527,33.852,77.441,75.793
	c-0.16,0.541-0.249,1.113-0.249,1.706c0,3.314,2.687,6,6,6h0.293h33.915h0.293c3.313,0,6-2.686,6-6c0-0.593-0.089-1.165-0.249-1.706
	c0.914-41.941,35.286-75.785,77.441-75.793c0.004,0,0.009,0.001,0.013,0.001c0.02,0,0.04-0.004,0.06-0.004
	c0.243-0.003,0.482-0.022,0.717-0.053c0.067-0.009,0.133-0.02,0.2-0.03c0.26-0.043,0.517-0.097,0.764-0.172
	c0.002,0,0.005,0,0.007-0.001c0.001,0,0.001,0,0.001,0c0.39-0.119,0.764-0.274,1.115-0.466c0.16-0.086,0.314-0.182,0.463-0.281
	c0.01-0.006,0.02-0.011,0.029-0.018c0.156-0.105,0.306-0.218,0.45-0.337c0.004-0.003,0.008-0.006,0.012-0.009
	c0.128-0.105,0.249-0.218,0.367-0.333c0.021-0.02,0.043-0.038,0.063-0.058c0.097-0.097,0.186-0.2,0.276-0.304
	c0.038-0.043,0.079-0.085,0.116-0.13c0.066-0.081,0.125-0.166,0.187-0.25c0.055-0.074,0.112-0.146,0.163-0.222
	c0.039-0.058,0.072-0.12,0.109-0.18c0.065-0.106,0.132-0.211,0.192-0.322c0.019-0.036,0.034-0.073,0.053-0.109
	c0.069-0.136,0.138-0.274,0.197-0.416c0.007-0.018,0.013-0.036,0.02-0.053c0.065-0.16,0.125-0.323,0.177-0.489
	c0.016-0.052,0.026-0.106,0.041-0.158c0.037-0.133,0.075-0.265,0.103-0.401c0.081-0.392,0.121-0.794,0.121-1.201
	c0-0.001,0-0.002,0-0.003c0-0.016-0.002-0.03-0.002-0.046c-0.001-0.181-0.009-0.363-0.027-0.545c-0.01-0.1-0.028-0.197-0.043-0.295
	c-0.014-0.095-0.024-0.19-0.043-0.285c-0.037-0.185-0.083-0.366-0.136-0.544c-0.003-0.01-0.005-0.021-0.008-0.031l-0.001-0.005
	c-0.006-0.02-0.012-0.039-0.018-0.058l-6.731-22.129c-0.287-0.942-0.801-1.8-1.498-2.497c-25.539-25.538-25.539-67.092,0-92.631
	c0.046-0.046,0.076-0.101,0.121-0.147c6.091-3.001,11.708-6.854,16.672-11.499c13.439-12.578,20.84-29.84,20.84-48.607
	C359.083,149.33,341.825,123.641,315.117,112.734z M311.894,338.46l4.079,13.409c-43.652,3.879-78.396,39.214-81.316,83.131h-22.313
	c-2.92-43.917-37.665-79.252-81.316-83.131l4.079-13.409c24.703-25.684,28.2-64.339,10.509-93.706
	c4.227,0.713,8.56,1.093,12.968,1.093c29.063,0,54.076-17.64,64.917-42.771c10.841,25.131,35.853,42.771,64.917,42.771
	c4.408,0,8.741-0.38,12.968-1.093C283.694,274.121,287.191,312.776,311.894,338.46z M288.417,233.847
	c-32.349,0-58.667-26.318-58.667-58.667c0-3.314-2.686-6-6-6c-0.085,0-0.167,0.009-0.25,0.013c-0.083-0.003-0.165-0.013-0.25-0.013
	c-3.314,0-6,2.686-6,6c0,32.349-26.318,58.667-58.667,58.667c-33.445,0-58.666-23.931-58.666-55.667
	c0-23.768,14.107-44.951,35.989-54.125c0.298-0.092,2.13-0.96,2.738-1.254c12.277-5.93,19.732-11.366,19.732-36.802V12h12.333v52
	c0,35.633,7.055,59.722,21.568,73.643c2.129,2.042,4.372,3.819,6.699,5.376c-1.236,1.099-2.02,2.697-2.02,4.481c0,3.314,2.687,6,6,6
	c6.645,0,13.633-0.277,20.543-1.392c6.91,1.115,13.898,1.392,20.543,1.392c3.313,0,6-2.686,6-6c0-1.784-0.783-3.382-2.02-4.481
	c2.328-1.558,4.57-3.334,6.699-5.376C269.235,123.722,276.29,99.633,276.29,64V12h12.333v74c0,25.436,7.455,30.872,19.732,36.802
	c0.608,0.294,2.437,1.16,2.733,1.252c21.884,9.172,35.994,30.358,35.994,54.127C347.083,209.916,321.862,233.847,288.417,233.847z"
	/>
</svg>